<?xml version="1.0" encoding="utf-8"?>
<!-- Generator: Adobe Illustrator 28.2.0, SVG Export Plug-In . SVG Version: 6.00 Build 0)  -->
<svg version="1.1" id="Layer_1" xmlns="http://www.w3.org/2000/svg" xmlns:xlink="http://www.w3.org/1999/xlink" x="0px" y="0px"
	 viewBox="0 0 32 32" style="enable-background:new 0 0 32 32;" xml:space="preserve">
<style type="text/css">
	.st0{fill:url(#SVGID_1_);}
	.st1{fill:#FFFFFF;}
	.st2{fill:url(#SVGID_00000141440820264265330090000012173221180589443775_);}
</style>
<linearGradient id="SVGID_1_" gradientUnits="userSpaceOnUse" x1="16" y1="27.2053" x2="16" y2="4.7947">
	<stop  offset="0.1061" style="stop-color:#F1B40B"/>
	<stop  offset="0.2119" style="stop-color:#E9B40B"/>
	<stop  offset="0.3799" style="stop-color:#D2B50B"/>
	<stop  offset="0.589" style="stop-color:#ACB70B"/>
	<stop  offset="0.8291" style="stop-color:#79B90C"/>
	<stop  offset="0.9162" style="stop-color:#64BA0C"/>
</linearGradient>
<path class="st0" d="M27.84,27.01c-0.03,0.24-0.8,0.22-1.6,0.13c-0.4-0.05-0.78-0.08-1.06-0.09c-0.18-0.01-0.31-0.18-0.25-0.35
	c0.36-1.03,0.2-1.93-0.2-2.78c-0.37-0.78-0.25-2.11-0.2-2.53c0.01-0.08-0.04-0.15-0.11-0.18c-0.16-0.06-0.32-0.12-0.48-0.18
	c-0.74-0.29-1.48-0.63-1.76-0.76c-0.07-0.03-0.15-0.01-0.19,0.05c-0.03,0.05-0.06,0.09-0.1,0.14c-0.17,0.22-0.36,0.4-0.59,0.55
	c-0.33,0.22-0.72,0.37-1.12,0.42c-0.19,0.03-0.38,0.05-0.51,0.07c-0.41,0.06-0.8,0.11-1.2,0.16c-1.86,0.24-3.7,0.4-6.31,0.23
	c-0.73-0.05-4.4-0.55-5.38-3.34c-0.32-0.9-0.24-1.89,0.16-2.75c1.05-2.24,3.17-4.25,3.35-4.36C8.1,11.6,6.2,9.38,6.2,9.38
	c0.57,0.21,1.32,0.08,1.32,0.08c-2-0.76-2.48-2.13-2.48-2.13c0.71,0.3,1.44,0.32,1.44,0.32c-1.8-0.92-2.32-2.85-2.32-2.85
	s2.03,1.19,4.29,2.17c2.26,0.97,3.75,2.89,3.75,2.89c2.1-3.76,4.14-1.48,4.14-1.48l4.19,0.09c-2.76,0.31-3.62,0.16-4.47,1.07
	c-1.51,1.61-0.92,3.34-2.63,4.49c-1.41,0.95-2.33,0.79-4.23,1.45c-0.17,0.06-0.36,0.21-0.54,0.41c-0.6,0.69-0.7,1.68-0.31,2.5
	c0.75,1.56,2.63,1.9,3.16,2c2.37,0.43,4.33,0.36,6.33,0.17h0c0.06,0,0.11-0.01,0.17-0.02h0c0.1-0.01,0.19-0.01,0.27-0.03
	c1.68-0.23,2.02-1.59,2.02-1.59c0.04-0.28,0.16-0.66,0.49-1.11c0.65-0.89,0.55-3.08,0.52-3.55c0-0.04-0.04-0.08-0.09-0.07
	c-0.52,0.12-1.31,0.06-1.56,0.04c-0.04,0-0.08,0.03-0.08,0.07c0,0.58-0.03,1.09-0.04,1.43c-0.01,0.19,0.04,0.38,0.15,0.54
	c0.02,0.02,0.02,0.02,0.02,0.03c0.14,0.16,0.15,0.35,0.16,0.42c0.01,0.06,0.03,0.25-0.07,0.45c0,0,0,0,0,0.01
	c-0.14,0.27-0.48,0.35-0.74,0.21c-0.04-0.02-0.08-0.05-0.12-0.08c-0.05-0.04-0.09-0.08-0.12-0.11c-0.11-0.12-0.14-0.29-0.09-0.45
	l0.02-0.05c0.04-0.13,0.06-0.26,0.04-0.39l-0.25-2.16c-0.04-0.29,0.02-0.57,0.27-0.72c0.43-0.26,1-0.54,1.71-0.72
	c0.89-0.24,1.67-0.24,2.19-0.2c0.06,0,0.12-0.04,0.14-0.1c0.02-0.05,0.03-0.11,0.04-0.17c0.06-0.46-0.24-0.68-0.26-1.01
	c-0.03-0.44,0.46-1,1.03-1.09c0.87-0.14,1.6,0.88,1.52,1.46c-0.04,0.29-0.26,0.31-0.37,0.81c-0.03,0.12-0.1,0.5-0.27,0.65
	c-0.02,0.02-0.07,0.06-0.15,0.08c-0.09,0.02-0.17-0.02-0.2-0.04l-0.11-0.06c-0.06-0.03-0.14,0.01-0.14,0.08l0,0.03
	c0,0.1,0.02,0.2,0.08,0.29l1.31,2.11c0.02,0.03,0.06,0.04,0.09,0.02c0.35-0.27,0.66-0.63,0.84-0.84c0.08-0.1,0.11-0.24,0.07-0.36
	c-0.28-0.99,0.71-1.07,0.97-0.65c0.32,0.52-0.04,0.71-0.38,1.31c-0.34,0.6-1.28,2.1-1.77,2.07c-0.39-0.02-1-0.77-1.21-1.05
	c-0.03-0.04-0.08-0.02-0.09,0.02c-0.01,0.16-0.04,0.32-0.07,0.47c-0.18,0.93-0.61,1.58-0.78,1.8c-0.03,0.04-0.02,0.1,0.03,0.13
	c0.99,0.52,1.73,1.12,2.21,1.58c0.27,0.26,0.46,0.46,0.56,0.58c0.06,0.07,0.09,0.16,0.08,0.25c0,0.02,0,0.05-0.01,0.08
	c-0.06,0.81-0.22,3.68,0.37,4.66C26.95,26.73,27.87,26.78,27.84,27.01z"/>
</svg>
