<?xml version="1.0" encoding="utf-8"?>
<!-- Generator: Adobe Illustrator 28.2.0, SVG Export Plug-In . SVG Version: 6.00 Build 0)  -->
<svg version="1.1" id="Layer_1" xmlns="http://www.w3.org/2000/svg" xmlns:xlink="http://www.w3.org/1999/xlink" x="0px" y="0px"
	 viewBox="0 0 1080 1080" style="enable-background:new 0 0 1080 1080;" xml:space="preserve">
<style type="text/css">
	.st0{fill:#FFFFFF;stroke:#231F20;stroke-miterlimit:10;}
	.st1{fill:url(#SVGID_1_);}
	.st2{fill:none;}
	.st3{fill:url(#SVGID_00000082350063181123610470000010775134570925846935_);}
	.st4{fill:#303E3F;}
	.st5{fill:#F5621F;}
	.st6{fill:#313F3F;}
	.st7{fill:url(#SVGID_00000127032466276621512000000011245042781102345386_);}
	.st8{fill:url(#SVGID_00000085938384407683756490000009031852536084250298_);}
	.st9{fill:url(#SVGID_00000067955440414274176330000000611738574413441664_);}
	.st10{fill:url(#SVGID_00000152967725149033138830000003687168989830722699_);}
	.st11{fill:url(#SVGID_00000047775695821933304110000017773072582998315685_);}
	.st12{fill:url(#SVGID_00000092439557595287803930000004192474053804648356_);}
	.st13{fill:url(#SVGID_00000034075609057780951020000006777998465826981815_);}
	.st14{fill:url(#SVGID_00000085230769847521612900000005628629189640360587_);}
	.st15{fill:url(#SVGID_00000025416780224366413360000000629063393478376077_);}
	.st16{fill:url(#SVGID_00000124849171203779745710000005495155678384048818_);}
	.st17{fill:url(#SVGID_00000121979723272687553150000014520290074867190402_);}
	.st18{fill:url(#SVGID_00000122678593998373965620000002939605298581734585_);}
	.st19{fill:url(#SVGID_00000159466348808663804510000011172234931505705649_);}
	.st20{fill:url(#SVGID_00000017515651889597003730000003448598721060220564_);}
	.st21{fill:url(#SVGID_00000070119393791290405610000014148817982506499463_);}
	.st22{fill:url(#SVGID_00000084526449846388217230000015686857892032640128_);}
	.st23{fill:#1D1D1D;}
</style>
<g>
	<g>
		<linearGradient id="SVGID_1_" gradientUnits="userSpaceOnUse" x1="344.3923" y1="243.983" x2="849.4656" y2="243.983">
			<stop  offset="0" style="stop-color:#EA8717"/>
			<stop  offset="0.2231" style="stop-color:#EB8F14"/>
			<stop  offset="0.5721" style="stop-color:#EEA50D"/>
			<stop  offset="0.8268" style="stop-color:#F1BA07"/>
		</linearGradient>
		<path class="st1" d="M849.47,359.43l-19.69,3.32c-10.49-52.27-36.1-99.76-74.54-138c-51.53-51.27-120.06-79.5-192.96-79.5
			c-72.91,0-141.45,28.23-192.97,79.5c-2.46,2.45-4.9,4.96-7.27,7.52l-17.65-10.36c3.5-3.88,7.16-7.7,10.86-11.39
			c55.3-55.02,128.82-85.31,207.03-85.31c78.2,0,151.72,30.3,207.02,85.31C810.75,251.75,838.3,303,849.47,359.43z"/>
	</g>
	<line class="st2" x1="362.04" y1="232.27" x2="344.39" y2="221.91"/>
	
		<linearGradient id="SVGID_00000029745317396791504260000004469234516427464576_" gradientUnits="userSpaceOnUse" x1="420.6024" y1="497.5983" x2="420.6024" y2="182.4313">
		<stop  offset="0" style="stop-color:#F29D0F"/>
		<stop  offset="1" style="stop-color:#319427"/>
	</linearGradient>
	<path style="fill:url(#SVGID_00000029745317396791504260000004469234516427464576_);" d="M433.47,249.31l-76.39-1.59
		c0,0-37.34-41.52-75.54,26.95c0,0-27.16-35.06-68.32-52.75C172.06,204.22,135,182.43,135,182.43s9.48,35.15,42.37,51.91
		c0,0-13.37-0.35-26.31-5.8c0,0,8.7,25.11,45.2,38.9c0,0-13.58,2.33-23.98-1.49c0,0,34.59,40.53,74.76,37.7
		c-3.3,1.97-41.99,38.55-61.04,79.43c-7.33,15.73-8.66,33.76-2.91,50.14c17.86,50.85,84.81,59.98,98.04,60.84
		c105.24,6.79,141.31-16,266.94-17.9c68.86-1.04,124.49,11.71,158.14,21.44c-57.3-25.85-105.88-32.24-138.42-35.15
		c-131.97-11.81-193.73,23.13-298.55,4.03c-9.85-1.79-44.07-7.9-57.7-36.42c-7.19-15.04-5.36-33.05,5.63-45.58
		c3.21-3.66,6.69-6.32,9.77-7.4c34.66-12.02,51.32-9.12,77.09-26.45c31.18-20.97,20.37-52.62,47.95-81.9
		C367.49,252.27,383.19,254.93,433.47,249.31z"/>
	<g>
		<g>
			<path class="st4" d="M326.53,381.27c-2.48,0-4.78-1.57-5.6-4.05c-1.02-3.09,0.66-6.42,3.75-7.44l0,0
				c0.12-0.04,11.76-3.92,27.39-11.85c2.9-1.47,6.45-0.31,7.92,2.59c1.47,2.9,0.31,6.45-2.59,7.92
				c-16.48,8.37-28.53,12.36-29.03,12.53C327.76,381.18,327.14,381.27,326.53,381.27z M381.21,353.57c-1.89,0-3.75-0.91-4.89-2.59
				c-1.82-2.7-1.11-6.36,1.58-8.18c8.59-5.81,16.43-12.01,23.3-18.44c2.38-2.22,6.11-2.1,8.33,0.28c2.22,2.38,2.1,6.11-0.28,8.33
				c-7.32,6.85-15.65,13.44-24.75,19.6C383.49,353.25,382.34,353.57,381.21,353.57z M710.09,331.2c-0.93,0-1.87-0.22-2.75-0.69
				c-0.2-0.1-4.93-2.63-12.65-8.3c-2.62-1.93-3.19-5.61-1.27-8.24c1.93-2.62,5.61-3.19,8.24-1.27c6.95,5.1,11.16,7.36,11.2,7.39
				c2.87,1.53,3.96,5.1,2.43,7.97C714.23,330.06,712.2,331.2,710.09,331.2z M425.33,311.51c-1.16,0-2.33-0.34-3.35-1.05
				c-2.68-1.85-3.34-5.53-1.49-8.2c5.72-8.26,10.14-16.92,13.13-25.74c1.05-3.08,4.39-4.73,7.48-3.69c3.08,1.05,4.73,4.39,3.69,7.48
				c-3.35,9.86-8.26,19.51-14.6,28.66C429.04,310.62,427.2,311.51,425.33,311.51z M679.95,300.3c-1.48,0-2.96-0.55-4.1-1.66
				c-7.23-7-14.38-14.71-21.25-22.91c-2.09-2.49-1.76-6.21,0.73-8.3c2.5-2.09,6.21-1.76,8.3,0.73c6.61,7.89,13.48,15.29,20.42,22.01
				c2.34,2.26,2.4,6,0.13,8.33C683.03,299.7,681.49,300.3,679.95,300.3z M638.83,255.31c-1.86,0-3.69-0.88-4.84-2.52
				c-1.35-1.93-2.7-3.9-4.05-5.92c-3.87-5.77-8.89-10.92-14.94-15.29c-2.64-1.91-3.23-5.59-1.32-8.23c1.91-2.64,5.59-3.23,8.23-1.32
				c7.18,5.19,13.18,11.34,17.83,18.28c1.31,1.95,2.62,3.87,3.92,5.73c1.86,2.67,1.21,6.34-1.46,8.21
				C641.17,254.96,639.99,255.31,638.83,255.31z M454.32,260.28c-1.4,0-2.81-0.5-3.93-1.51c-2.42-2.17-2.63-5.9-0.45-8.32
				c6.79-7.57,15.27-14.39,25.19-20.26c2.8-1.66,6.42-0.73,8.07,2.07c1.66,2.8,0.73,6.42-2.07,8.07
				c-8.89,5.25-16.43,11.3-22.41,17.98C457.54,259.62,455.93,260.28,454.32,260.28z M500.54,224.57c-2.48,0-4.79-1.58-5.6-4.06
				c-1.01-3.09,0.68-6.42,3.77-7.43c9.92-3.24,20.32-5.6,30.92-7.01c3.22-0.43,6.19,1.84,6.62,5.07c0.43,3.23-1.84,6.19-5.07,6.62
				c-9.88,1.31-19.57,3.51-28.8,6.53C501.76,224.47,501.14,224.57,500.54,224.57z M590.09,220.9c-0.56,0-1.12-0.08-1.68-0.25
				c-8.86-2.64-18.55-4.27-28.81-4.85c-3.25-0.18-5.74-2.97-5.55-6.22c0.18-3.25,2.99-5.74,6.22-5.55
				c11.17,0.63,21.77,2.42,31.51,5.32c3.12,0.93,4.9,4.21,3.97,7.33C594.97,219.25,592.63,220.9,590.09,220.9z"/>
		</g>
	</g>
	<g>
		<g>
			<polygon class="st5" points="777.23,336.83 799.15,359.38 782.25,375.82 760.78,353.74 739.32,375.82 722.41,359.38 
				744.34,336.83 722.41,314.28 739.32,297.85 760.78,319.93 782.25,297.85 799.15,314.28 			"/>
		</g>
	</g>
	<path class="st6" d="M770.71,481.76c0,0-156.31-55.17-304.49-37.34c-148.17,17.82-145.58,9.76-145.58,9.76s50.03-17.4,78.89-20.37
		v-44.84h50.92v-37.34h50.64v71.86c0,0,14.71,0.57,20.86-0.92V283.36h65.78v107.15h19.31v-55.17h55.38v61.32h43.78v39.68
		c0,0,9.05,1.27,14.78,4.03v-26.31h22.07v31.19c0,0,19.87,5.73,27.65,9.12V481.76z"/>
	
		<linearGradient id="SVGID_00000043441225519696052910000011532351715179318920_" gradientUnits="userSpaceOnUse" x1="867.2559" y1="624.1554" x2="867.2559" y2="338.5186">
		<stop  offset="0.1955" style="stop-color:#84BA0C"/>
		<stop  offset="0.3847" style="stop-color:#ACB80C"/>
		<stop  offset="0.59" style="stop-color:#D2B60B"/>
		<stop  offset="0.7559" style="stop-color:#E9B40B"/>
		<stop  offset="0.8603" style="stop-color:#F1B40B"/>
	</linearGradient>
	<path style="fill:url(#SVGID_00000043441225519696052910000011532351715179318920_);" d="M806.74,433.67
		c0.34-5.59,0.78-14.79,0.81-25.07c0-0.7,0.6-1.26,1.3-1.19c4.13,0.38,17.25,1.34,25.99-0.7c0.72-0.17,1.41,0.36,1.46,1.1
		c0.48,7.73,2.12,44.35-8.73,59.24c-8.69,11.92-8.79,20.89-8.14,25.04c0.3,1.93-0.08,3.91-1.01,5.63l-7.12,13.33l18.67,15.84
		c0,0,12.58-10.18,17.45-17.87c0.68-1.08,2.06-1.46,3.21-0.92c5.85,2.76,22.71,10.54,37.5,15.77c1.25,0.44,2.03,1.68,1.87,2.99
		c-0.86,7.07-2.91,29.25,3.27,42.32c6.68,14.12,9.29,29.15,3.28,46.43c-0.99,2.84,1.11,5.82,4.12,5.92
		c4.59,0.15,10.97,0.74,17.64,1.54c13.25,1.6,26.1,1.84,26.66-2.12c0.57-3.96-14.85-4.81-26.31-23.91
		c-10.15-16.92-6.92-67.7-6.06-79.08c0.12-1.51-0.37-2.99-1.36-4.15c-4.79-5.59-20.63-22.63-46.35-36.14
		c-0.79-0.41-1.03-1.42-0.5-2.14c3.13-4.23,12.34-18.19,14.08-37.9c0.06-0.72,0.99-0.99,1.43-0.41c3.52,4.67,13.6,17.24,20.16,17.59
		c8.06,0.42,23.76-24.61,29.49-34.59c5.73-9.97,11.74-13.3,6.37-21.93c-4.36-6.99-20.88-5.7-16.22,10.85c0.6,2.12,0.15,4.4-1.25,6.1
		c-2.92,3.55-8.24,9.6-14.01,14.05c-0.49,0.38-1.2,0.24-1.52-0.29l-21.94-35.31c-0.89-1.43-1.34-3.09-1.3-4.77l0.01-0.59
		c0.03-1.15,1.25-1.87,2.28-1.35l1.89,0.98c0.54,0.31,1.83,0.96,3.39,0.71c1.31-0.21,2.17-0.95,2.55-1.27
		c2.87-2.51,4.09-8.85,4.53-10.79c1.85-8.27,5.48-8.65,6.15-13.47c1.37-9.76-10.84-26.77-25.39-24.4
		c-9.42,1.53-17.68,10.84-17.15,18.25c0.39,5.39,5.38,9.14,4.42,16.83c-0.14,1.1-0.37,2.08-0.62,2.9c-0.32,1.03-1.28,1.71-2.35,1.63
		c-8.76-0.66-21.7-0.58-36.63,3.39c-11.87,3.16-21.44,7.82-28.54,12.1c-4.16,2.5-5.22,7.25-4.5,12.05l4.25,36.15
		c0.33,2.21,0.13,4.47-0.59,6.59l-0.26,0.76c-0.87,2.56-0.37,5.43,1.44,7.44c0.58,0.64,1.27,1.3,2.07,1.92
		c0.66,0.51,1.32,0.94,1.98,1.31c4.39,2.47,10.05,1.02,12.4-3.43c0.02-0.04,0.04-0.07,0.06-0.11c1.73-3.36,1.4-6.49,1.24-7.57
		c-0.04-1.13-0.31-4.23-2.62-6.97c-0.01-0.01-0.02-0.03-0.03-0.04C807.67,439.61,806.56,436.7,806.74,433.67z"/>
	<g>
		
			<linearGradient id="SVGID_00000020374941197051209910000002452894525191313066_" gradientUnits="userSpaceOnUse" x1="131.7854" y1="566.8224" x2="898.2013" y2="564.2762">
			<stop  offset="0.1564" style="stop-color:#229031"/>
			<stop  offset="0.2347" style="stop-color:#2A922F"/>
			<stop  offset="0.3576" style="stop-color:#41992B"/>
			<stop  offset="0.5099" style="stop-color:#65A323"/>
			<stop  offset="0.6854" style="stop-color:#98B219"/>
			<stop  offset="0.8785" style="stop-color:#D9C50C"/>
			<stop  offset="0.8994" style="stop-color:#E0C70A"/>
		</linearGradient>
		<path style="fill:url(#SVGID_00000020374941197051209910000002452894525191313066_);" d="M281.07,611.02h-27.12l-31.32-35.39
			v35.39h-20.75V521.9h20.75v34.88l29.28-34.88h25.72l-37.56,43.67L281.07,611.02z"/>
		
			<linearGradient id="SVGID_00000119808534808547071260000009403191092075051174_" gradientUnits="userSpaceOnUse" x1="131.7861" y1="567.0136" x2="898.201" y2="564.4673">
			<stop  offset="0.1564" style="stop-color:#229031"/>
			<stop  offset="0.2347" style="stop-color:#2A922F"/>
			<stop  offset="0.3576" style="stop-color:#41992B"/>
			<stop  offset="0.5099" style="stop-color:#65A323"/>
			<stop  offset="0.6854" style="stop-color:#98B219"/>
			<stop  offset="0.8785" style="stop-color:#D9C50C"/>
			<stop  offset="0.8994" style="stop-color:#E0C70A"/>
		</linearGradient>
		<path style="fill:url(#SVGID_00000119808534808547071260000009403191092075051174_);" d="M288.58,521.9h20.88v89.12h-20.88V521.9z
			"/>
		
			<linearGradient id="SVGID_00000013174587808605131890000008546757686961280654_" gradientUnits="userSpaceOnUse" x1="131.787" y1="567.2439" x2="898.2021" y2="564.6976">
			<stop  offset="0.1564" style="stop-color:#229031"/>
			<stop  offset="0.2347" style="stop-color:#2A922F"/>
			<stop  offset="0.3576" style="stop-color:#41992B"/>
			<stop  offset="0.5099" style="stop-color:#65A323"/>
			<stop  offset="0.6854" style="stop-color:#98B219"/>
			<stop  offset="0.8785" style="stop-color:#D9C50C"/>
			<stop  offset="0.8994" style="stop-color:#E0C70A"/>
		</linearGradient>
		<path style="fill:url(#SVGID_00000013174587808605131890000008546757686961280654_);" d="M387.37,521.9h20.75v89.12h-18.71
			l-40.36-55.13l0.25,24.06v31.06h-20.75V521.9h18.71l40.36,55.38l-0.25-23.81V521.9z"/>
		
			<linearGradient id="SVGID_00000147915596011594301470000014634687675158910866_" gradientUnits="userSpaceOnUse" x1="131.7876" y1="567.5169" x2="898.2031" y2="564.9707">
			<stop  offset="0.1564" style="stop-color:#229031"/>
			<stop  offset="0.2347" style="stop-color:#2A922F"/>
			<stop  offset="0.3576" style="stop-color:#41992B"/>
			<stop  offset="0.5099" style="stop-color:#65A323"/>
			<stop  offset="0.6854" style="stop-color:#98B219"/>
			<stop  offset="0.8785" style="stop-color:#D9C50C"/>
			<stop  offset="0.8994" style="stop-color:#E0C70A"/>
		</linearGradient>
		<path style="fill:url(#SVGID_00000147915596011594301470000014634687675158910866_);" d="M507.3,558.31v39.72
			c-4.5,4.84-10.04,8.55-16.61,11.14c-6.58,2.59-13.81,3.88-21.71,3.88c-9.42,0-17.68-1.91-24.76-5.73
			c-7.09-3.82-12.56-9.25-16.42-16.3c-3.86-7.04-5.79-15.23-5.79-24.57c0-9.08,2.04-17.17,6.11-24.25
			c4.07-7.09,9.78-12.6,17.12-16.55c7.34-3.95,15.77-5.92,25.27-5.92c6.87,0,13.09,1.19,18.65,3.56
			c5.56,2.38,10.67,5.98,15.34,10.82l-12.6,12.48c-2.8-2.8-6.09-4.97-9.87-6.49c-3.78-1.53-7.66-2.29-11.65-2.29
			c-8.57,0-15.34,2.57-20.31,7.7c-4.97,5.14-7.45,12.12-7.45,20.94c0,5.69,1.1,10.69,3.31,15.02c2.21,4.33,5.35,7.68,9.42,10.06
			c4.07,2.38,8.78,3.57,14.13,3.57c8.4,0,15.11-2.16,20.11-6.49v-13.62h-24.19v-16.68H507.3z"/>
		
			<linearGradient id="SVGID_00000111151560316798112730000015782334387812486786_" gradientUnits="userSpaceOnUse" x1="131.7893" y1="567.8655" x2="898.2044" y2="565.3193">
			<stop  offset="0.1564" style="stop-color:#229031"/>
			<stop  offset="0.2347" style="stop-color:#2A922F"/>
			<stop  offset="0.3576" style="stop-color:#41992B"/>
			<stop  offset="0.5099" style="stop-color:#65A323"/>
			<stop  offset="0.6854" style="stop-color:#98B219"/>
			<stop  offset="0.8785" style="stop-color:#D9C50C"/>
			<stop  offset="0.8994" style="stop-color:#E0C70A"/>
		</linearGradient>
		<path style="fill:url(#SVGID_00000111151560316798112730000015782334387812486786_);" d="M534.35,609.74
			c-6.75-2.21-12.58-5.3-17.5-9.29l10.82-15.15c7.89,6.2,17.1,9.29,27.63,9.29c5.26,0,9.44-0.89,12.54-2.67
			c3.1-1.78,4.65-4.2,4.65-7.26c0-2.88-1.44-5.13-4.33-6.75c-2.89-1.61-7.47-2.76-13.75-3.44c-12.14-1.36-21.03-4.2-26.67-8.53
			c-5.65-4.33-8.47-10.52-8.47-18.59c0-5.43,1.53-10.23,4.58-14.39c3.06-4.16,7.34-7.38,12.86-9.68c5.52-2.29,11.88-3.44,19.1-3.44
			c6.19,0,12.24,0.89,18.14,2.67c5.9,1.78,11.1,4.29,15.6,7.51l-9.8,14.64c-6.96-4.84-14.64-7.26-23.04-7.26
			c-5.18,0-9.32,0.85-12.41,2.55c-3.1,1.7-4.65,3.99-4.65,6.87c0,2.8,1.34,4.97,4.01,6.49c2.67,1.53,7.15,2.67,13.43,3.44
			c12.05,1.36,21.05,4.35,26.99,8.98c5.94,4.63,8.91,10.97,8.91,19.03c0,5.6-1.57,10.55-4.71,14.83c-3.14,4.29-7.56,7.6-13.24,9.93
			c-5.69,2.33-12.22,3.5-19.61,3.5C548.12,613.05,541.1,611.95,534.35,609.74z"/>
		
			<linearGradient id="SVGID_00000021821171668510262130000015655856073818665630_" gradientUnits="userSpaceOnUse" x1="131.7892" y1="568.0856" x2="898.203" y2="565.5394">
			<stop  offset="0.1564" style="stop-color:#229031"/>
			<stop  offset="0.2347" style="stop-color:#2A922F"/>
			<stop  offset="0.3576" style="stop-color:#41992B"/>
			<stop  offset="0.5099" style="stop-color:#65A323"/>
			<stop  offset="0.6854" style="stop-color:#98B219"/>
			<stop  offset="0.8785" style="stop-color:#D9C50C"/>
			<stop  offset="0.8994" style="stop-color:#E0C70A"/>
		</linearGradient>
		<path style="fill:url(#SVGID_00000021821171668510262130000015655856073818665630_);" d="M672.93,521.9v18.2h-27.25v70.91h-20.88
			V540.1h-27.12v-18.2H672.93z"/>
		
			<linearGradient id="SVGID_00000122686503723545538350000009337979061052146344_" gradientUnits="userSpaceOnUse" x1="131.7905" y1="568.4301" x2="898.2072" y2="565.8839">
			<stop  offset="0.1564" style="stop-color:#229031"/>
			<stop  offset="0.2347" style="stop-color:#2A922F"/>
			<stop  offset="0.3576" style="stop-color:#41992B"/>
			<stop  offset="0.5099" style="stop-color:#65A323"/>
			<stop  offset="0.6854" style="stop-color:#98B219"/>
			<stop  offset="0.8785" style="stop-color:#D9C50C"/>
			<stop  offset="0.8994" style="stop-color:#E0C70A"/>
		</linearGradient>
		<path style="fill:url(#SVGID_00000122686503723545538350000009337979061052146344_);" d="M700.12,607.39
			c-7.26-3.86-12.86-9.31-16.8-16.36c-3.95-7.04-5.92-15.23-5.92-24.57c0-9.34,1.97-17.53,5.92-24.57
			c3.95-7.04,9.55-12.5,16.8-16.36c7.26-3.86,15.68-5.79,25.27-5.79c9.59,0,18.01,1.93,25.27,5.79c7.26,3.86,12.86,9.32,16.8,16.36
			c3.95,7.05,5.92,15.23,5.92,24.57c0,9.34-1.97,17.53-5.92,24.57c-3.95,7.05-9.55,12.5-16.8,16.36s-15.68,5.79-25.27,5.79
			C715.79,613.18,707.37,611.25,700.12,607.39z M739.58,591.09c4.12-2.33,7.3-5.62,9.55-9.87c2.25-4.24,3.37-9.17,3.37-14.77
			c0-5.6-1.13-10.52-3.37-14.77c-2.25-4.24-5.43-7.53-9.55-9.87c-4.12-2.33-8.85-3.5-14.2-3.5c-5.35,0-10.06,1.17-14.13,3.5
			c-4.07,2.34-7.24,5.62-9.49,9.87c-2.25,4.25-3.37,9.17-3.37,14.77c0,5.6,1.12,10.53,3.37,14.77c2.25,4.25,5.41,7.53,9.49,9.87
			c4.07,2.34,8.78,3.5,14.13,3.5C730.73,594.59,735.46,593.43,739.58,591.09z"/>
		
			<linearGradient id="SVGID_00000110454262502322581920000002029882620971411378_" gradientUnits="userSpaceOnUse" x1="131.7916" y1="568.7678" x2="898.2078" y2="566.2216">
			<stop  offset="0.1564" style="stop-color:#229031"/>
			<stop  offset="0.2347" style="stop-color:#2A922F"/>
			<stop  offset="0.3576" style="stop-color:#41992B"/>
			<stop  offset="0.5099" style="stop-color:#65A323"/>
			<stop  offset="0.6854" style="stop-color:#98B219"/>
			<stop  offset="0.8785" style="stop-color:#D9C50C"/>
			<stop  offset="0.8994" style="stop-color:#E0C70A"/>
		</linearGradient>
		<path style="fill:url(#SVGID_00000110454262502322581920000002029882620971411378_);" d="M846.08,521.9h20.75v89.12h-18.71
			l-40.36-55.13l0.25,24.06v31.06h-20.75V521.9h18.71l40.36,55.38l-0.26-23.81V521.9z"/>
	</g>
	<g>
		
			<linearGradient id="SVGID_00000113314817381992053440000003688550391921921469_" gradientUnits="userSpaceOnUse" x1="174.9326" y1="682.5472" x2="880.2384" y2="685.0935">
			<stop  offset="0" style="stop-color:#EA7317"/>
			<stop  offset="0.1761" style="stop-color:#EB7B15"/>
			<stop  offset="0.4524" style="stop-color:#ED9210"/>
			<stop  offset="0.7926" style="stop-color:#F1B608"/>
			<stop  offset="0.8268" style="stop-color:#F1BA07"/>
		</linearGradient>
		<path style="fill:url(#SVGID_00000113314817381992053440000003688550391921921469_);" d="M220.78,725.43
			c-7.59-4.08-13.45-9.81-17.58-17.18c-4.13-7.37-6.19-15.85-6.19-25.44c0-9.59,2.11-18.09,6.33-25.51
			c4.22-7.41,10.1-13.14,17.65-17.18c7.55-4.04,16.16-6.06,25.84-6.06c13.76,0,25.57,4.84,35.43,14.52l-13.45,13.45
			c-5.95-5.68-13.1-8.52-21.45-8.52c-5.59,0-10.55,1.22-14.85,3.66c-4.31,2.44-7.64,5.88-9.99,10.32
			c-2.35,4.44-3.53,9.55-3.53,15.32c0,5.77,1.18,10.88,3.53,15.32c2.35,4.44,5.68,7.88,9.99,10.32c4.31,2.44,9.26,3.66,14.85,3.66
			c4.44,0,8.7-0.8,12.79-2.4c4.08-1.6,7.64-3.91,10.66-6.93l12.79,14.25c-10.04,9.68-22.16,14.52-36.36,14.52
			C237.19,731.56,228.37,729.52,220.78,725.43z"/>
		
			<linearGradient id="SVGID_00000157303259331699347640000016023236725181042059_" gradientUnits="userSpaceOnUse" x1="174.9339" y1="682.3037" x2="880.2394" y2="684.8499">
			<stop  offset="0" style="stop-color:#EA7317"/>
			<stop  offset="0.1761" style="stop-color:#EB7B15"/>
			<stop  offset="0.4524" style="stop-color:#ED9210"/>
			<stop  offset="0.7926" style="stop-color:#F1B608"/>
			<stop  offset="0.8268" style="stop-color:#F1BA07"/>
		</linearGradient>
		<path style="fill:url(#SVGID_00000157303259331699347640000016023236725181042059_);" d="M303.57,636.19h21.85v93.24h-21.85
			V636.19z"/>
		
			<linearGradient id="SVGID_00000101085230798147630370000007169127816308007809_" gradientUnits="userSpaceOnUse" x1="174.9345" y1="681.9993" x2="880.2408" y2="684.5455">
			<stop  offset="0" style="stop-color:#EA7317"/>
			<stop  offset="0.1761" style="stop-color:#EB7B15"/>
			<stop  offset="0.4524" style="stop-color:#ED9210"/>
			<stop  offset="0.7926" style="stop-color:#F1B608"/>
			<stop  offset="0.8268" style="stop-color:#F1BA07"/>
		</linearGradient>
		<path style="fill:url(#SVGID_00000101085230798147630370000007169127816308007809_);" d="M423.98,636.19v19.05h-28.51v74.2h-21.85
			v-74.2h-28.37v-19.05H423.98z"/>
		
			<linearGradient id="SVGID_00000148622790507503660480000016649994540145476737_" gradientUnits="userSpaceOnUse" x1="174.9357" y1="681.6372" x2="880.2418" y2="684.1835">
			<stop  offset="0" style="stop-color:#EA7317"/>
			<stop  offset="0.1761" style="stop-color:#EB7B15"/>
			<stop  offset="0.4524" style="stop-color:#ED9210"/>
			<stop  offset="0.7926" style="stop-color:#F1B608"/>
			<stop  offset="0.8268" style="stop-color:#F1BA07"/>
		</linearGradient>
		<path style="fill:url(#SVGID_00000148622790507503660480000016649994540145476737_);" d="M528.95,636.19l-37.96,56.75v36.5h-21.71
			v-36.5l-36.63-56.75h25.58l22.11,36.23l22.64-36.23H528.95z"/>
		
			<linearGradient id="SVGID_00000075873033586879269270000015459242307701888443_" gradientUnits="userSpaceOnUse" x1="174.9375" y1="681.2603" x2="880.2443" y2="683.8065">
			<stop  offset="0" style="stop-color:#EA7317"/>
			<stop  offset="0.1761" style="stop-color:#EB7B15"/>
			<stop  offset="0.4524" style="stop-color:#ED9210"/>
			<stop  offset="0.7926" style="stop-color:#F1B608"/>
			<stop  offset="0.8268" style="stop-color:#F1BA07"/>
		</linearGradient>
		<path style="fill:url(#SVGID_00000075873033586879269270000015459242307701888443_);" d="M615.27,698.66h-12.65v30.77h-21.85
			v-93.24h45.42c6.75,0,12.65,1.31,17.72,3.93c5.06,2.62,8.97,6.33,11.72,11.12c2.75,4.79,4.13,10.3,4.13,16.52
			c0,7.11-1.84,13.19-5.53,18.25c-3.69,5.06-8.9,8.66-15.65,10.79l26.37,32.64h-25.98L615.27,698.66z M634.38,658.3
			c-2.53-2.31-6.11-3.46-10.72-3.46h-21.18v26.24h21.18c4.71,0,8.3-1.13,10.79-3.4c2.49-2.26,3.73-5.48,3.73-9.66
			C638.18,663.85,636.91,660.61,634.38,658.3z"/>
		
			<linearGradient id="SVGID_00000001621931818751168820000011152693388334711451_" gradientUnits="userSpaceOnUse" x1="174.9354" y1="681.7424" x2="880.2417" y2="684.2886">
			<stop  offset="0" style="stop-color:#EA7317"/>
			<stop  offset="0.1761" style="stop-color:#EB7B15"/>
			<stop  offset="0.4524" style="stop-color:#ED9210"/>
			<stop  offset="0.7926" style="stop-color:#F1B608"/>
			<stop  offset="0.8268" style="stop-color:#F1BA07"/>
		</linearGradient>
		<path style="fill:url(#SVGID_00000001621931818751168820000011152693388334711451_);" d="M694.32,720.3
			c-7.42-7.41-11.12-17.78-11.12-31.1v-53.02h21.85v53.02c0,7.11,1.8,12.7,5.39,16.78c3.6,4.09,8.64,6.13,15.12,6.13
			c6.3,0,11.28-2.04,14.92-6.13c3.64-4.08,5.46-9.68,5.46-16.78v-53.02h21.85v53.02c0,13.32-3.69,23.69-11.06,31.1
			c-7.37,7.42-17.76,11.12-31.17,11.12C712.15,731.43,701.74,727.72,694.32,720.3z"/>
		
			<linearGradient id="SVGID_00000165946675052900774480000000026026568175612345_" gradientUnits="userSpaceOnUse" x1="174.9405" y1="680.4218" x2="880.2463" y2="682.968">
			<stop  offset="0" style="stop-color:#EA7317"/>
			<stop  offset="0.1761" style="stop-color:#EB7B15"/>
			<stop  offset="0.4524" style="stop-color:#ED9210"/>
			<stop  offset="0.7926" style="stop-color:#F1B608"/>
			<stop  offset="0.8268" style="stop-color:#F1BA07"/>
		</linearGradient>
		<path style="fill:url(#SVGID_00000165946675052900774480000000026026568175612345_);" d="M855.7,636.19h21.71v93.24h-19.58
			l-42.23-57.68l0.27,25.18v32.5h-21.71v-93.24h19.58l42.23,57.94l-0.27-24.91V636.19z"/>
	</g>
	<g>
		<g>
			<path class="st23" d="M230.79,794.32h7.2v-24.78l-6.84,2.01v-7.08l14.57-4.84v34.7h6.84v6.61h-21.77V794.32z"/>
			<path class="st23" d="M259.58,777.09c0-24.67,35.52-24.61,35.52,0v6.37c0,24.61-35.52,24.66-35.52,0V777.09z M267.31,783.46
				c0,14.99,20.06,14.99,20.06,0v-6.37c0-14.75-20.06-14.93-20.06,0V783.46z"/>
			<path class="st23" d="M338.59,759.86l-18.35,19.77l19.88,20.83v0.47h-9.62l-17.29-18.29v18.29h-7.79v-41.3h7.79v17.47l15.7-17.47
				h9.68V759.86z"/>
			<path class="st23" d="M368.97,759.68v41.25h-7.14v-41.25H368.97z"/>
			<path class="st23" d="M425.67,767h-22.3v7.26h8.02c8.79,0,16.64,3.6,16.58,13.28c0,9.38-7.85,13.87-16.17,13.87
				c-9.09,0-16.88-3.25-16.93-12.92h7.73c0,4.54,5.19,5.72,9.09,5.72c3.78,0,8.56-1.77,8.56-6.67c0.06-4.66-4.6-6.02-8.85-6.02
				h-15.64c0-7.43,0-14.34,0-21.83h29.92V767z"/>
			<path class="st23" d="M470.8,759.86l-18.35,19.77l19.88,20.83v0.47h-9.62l-17.29-18.29v18.29h-7.79v-41.3h7.79v17.47l15.7-17.47
				h9.68V759.86z"/>
			<path class="st23" d="M535.88,800.92h-6.61l-5.13-12.98l-4.37-13.04l-4.31,13.16l-5.02,12.86h-6.61l-15.16-41.3h8.73l9.74,29.8
				l10.03-29.8h5.07l10.33,29.8l9.44-29.8h8.73L535.88,800.92z"/>
			<path class="st23" d="M584.91,793.13h-21.6l-3.54,7.79h-8.44l18.53-41.3h8.5l18.53,41.3h-8.5L584.91,793.13z M574.11,768.29
				l-7.67,17.58h15.34L574.11,768.29z"/>
			<path class="st23" d="M611.99,759.62v34.11h21.24v7.2H604.2v-41.3H611.99z"/>
			<path class="st23" d="M674.53,759.86l-18.35,19.77l19.88,20.83v0.47h-9.62l-17.29-18.29v18.29h-7.79v-41.3h7.79v17.47l15.7-17.47
				h9.68V759.86z"/>
			<path class="st23" d="M706.68,755.73l-19.71,50.04h-7.49l19.65-50.04H706.68z"/>
			<path class="st23" d="M751.76,800.92h-8.91l-11.98-13.81h-7.91v13.81h-7.79v-41.36c6.55,0,13.1,0.06,19.65,0.06
				c9.74,0.06,14.87,6.55,14.87,13.69c0,5.66-2.6,11.39-10.44,12.98l12.51,14.1V800.92z M722.96,766.88v13.22h11.86
				c4.96,0,7.08-3.3,7.08-6.61c0-3.3-2.18-6.61-7.08-6.61H722.96z"/>
			<path class="st23" d="M796.07,759.68v23.66c0,12.21-7.49,18.47-17.88,18.47c-9.91,0-18.35-6.02-18.35-18.47v-23.66h7.73v23.66
				c0,7.43,4.25,11.39,10.68,11.39s10.09-4.31,10.09-11.39v-23.66H796.07z"/>
			<path class="st23" d="M835.83,787.41v-27.79h7.79v41.3h-6.31l-21.95-27.5v27.5h-7.79v-41.3h6.31L835.83,787.41z"/>
		</g>
	</g>
	<g>
		<g>
			<path class="st23" d="M371.89,953.84h-8.91l-11.98-13.81h-7.91v13.81h-7.79v-41.36c6.55,0,13.1,0.06,19.65,0.06
				c9.74,0.06,14.87,6.55,14.87,13.69c0,5.66-2.6,11.39-10.44,12.98l12.51,14.1V953.84z M343.1,919.8v13.22h11.86
				c4.96,0,7.08-3.3,7.08-6.61c0-3.3-2.18-6.61-7.08-6.61H343.1z"/>
			<path class="st23" d="M418.86,912.6v23.66c0,12.21-7.49,18.47-17.88,18.47c-9.91,0-18.35-6.02-18.35-18.47V912.6h7.73v23.66
				c0,7.43,4.25,11.39,10.68,11.39s10.09-4.31,10.09-11.39V912.6H418.86z"/>
			<path class="st23" d="M461.28,940.33v-27.79h7.79v41.3h-6.31l-21.95-27.5v27.5h-7.79v-41.3h6.31L461.28,940.33z"/>
			<path class="st23" d="M539.81,932.84c0.18,10.44-6.2,21.01-20.65,21.01c-5.07,0-11.15,0-16.23,0v-41.3c5.07,0,11.15,0,16.23,0
				C533.32,912.54,539.63,922.63,539.81,932.84z M510.66,946.35h8.5c9.38,0,13.1-6.84,12.92-13.57
				c-0.18-6.43-3.95-12.86-12.92-12.86h-8.5V946.35z"/>
			<path class="st23" d="M552.13,953.84v-41.3h7.73v41.3H552.13z"/>
			<path class="st23" d="M628.95,948.65c-4.25,4.19-9.74,6.14-15.7,6.14c-15.34,0-21.83-10.56-21.89-21.3
				c-0.06-10.8,6.96-21.77,21.89-21.77c5.61,0,10.92,2.12,15.16,6.31l-5.19,5.02c-2.71-2.66-6.37-3.89-9.97-3.89
				c-9.97,0-14.28,7.43-14.22,14.34c0.06,6.84,4.01,13.98,14.22,13.98c3.6,0,7.67-1.47,10.39-4.19L628.95,948.65z"/>
			<path class="st23" d="M639.92,953.84v-41.3h7.73v41.3H639.92z"/>
			<path class="st23" d="M671.55,919.62h-13.1v-7.08c11.92,0,22.01,0,33.99,0v7.08h-13.1v34.22h-7.79V919.62z"/>
			<path class="st23" d="M718.75,929.59l10.98-17.05h9.38v0.35l-16.46,23.9v17.05h-7.79v-17.05l-15.87-23.9v-0.35h9.26
				L718.75,929.59z"/>
		</g>
	</g>
	<g>
		<g>
			<path class="st23" d="M361.32,826.47c4.07,2.05,7.22,5,9.44,8.84c2.22,3.84,3.33,8.32,3.33,13.43c0,5.12-1.11,9.59-3.33,13.43
				c-2.22,3.84-5.37,6.78-9.44,8.84c-4.08,2.05-8.84,3.08-14.29,3.08h-17.27v20h-16.56v-70.7h33.84
				C352.48,823.39,357.24,824.42,361.32,826.47z M354.55,856.72c2.05-1.95,3.08-4.58,3.08-7.88c0-3.3-1.03-5.92-3.08-7.88
				c-2.05-1.95-4.83-2.93-8.33-2.93h-16.56v21.61h16.56C349.72,859.65,352.5,858.67,354.55,856.72z"/>
			<path class="st23" d="M385.91,823.39h16.56v70.7h-16.56V823.39z"/>
			<path class="st23" d="M446.31,870.76h-9.59v23.33h-16.56v-70.7h34.44c5.12,0,9.59,0.99,13.43,2.98c3.84,1.99,6.8,4.8,8.89,8.43
				c2.09,3.64,3.13,7.81,3.13,12.52c0,5.39-1.4,10-4.19,13.84c-2.79,3.84-6.75,6.56-11.87,8.18l20,24.75h-19.69L446.31,870.76z
				 M460.8,840.15c-1.92-1.75-4.63-2.63-8.13-2.63h-16.06v19.9h16.06c3.57,0,6.29-0.86,8.18-2.58c1.88-1.72,2.83-4.16,2.83-7.32
				S462.72,841.91,460.8,840.15z"/>
			<path class="st23" d="M550.14,894.09l-5.25-12.73h-34.84l-5.25,12.73h-17.67l31.71-70.7h17.68l31.51,70.7H550.14z M527.61,839.25
				L516,867.12h23.03L527.61,839.25z"/>
			<path class="st23" d="M624.37,823.39v14.44h-21.61v56.26h-16.56v-56.26h-21.51v-14.44H624.37z"/>
			<path class="st23" d="M651.84,880.15h38.99v13.94h-55.05v-70.7h53.93v13.84h-37.88v14.34h35.85v13.33h-35.85V880.15z"/>
			<path class="st23" d="M714.71,893.08c-5.35-1.75-9.98-4.21-13.89-7.37l8.58-12.02c6.26,4.92,13.57,7.37,21.92,7.37
				c4.17,0,7.49-0.71,9.95-2.12c2.46-1.41,3.69-3.33,3.69-5.76c0-2.29-1.15-4.07-3.43-5.35c-2.29-1.28-5.93-2.19-10.91-2.73
				c-9.63-1.08-16.68-3.33-21.16-6.77c-4.48-3.43-6.72-8.35-6.72-14.75c0-4.31,1.21-8.11,3.64-11.41c2.42-3.3,5.82-5.86,10.2-7.68
				c4.38-1.82,9.43-2.73,15.15-2.73c4.91,0,9.71,0.71,14.39,2.12c4.68,1.41,8.8,3.4,12.37,5.96l-7.78,11.62
				c-5.52-3.84-11.61-5.76-18.28-5.76c-4.11,0-7.39,0.67-9.85,2.02c-2.46,1.35-3.69,3.17-3.69,5.45c0,2.22,1.06,3.94,3.18,5.15
				c2.12,1.21,5.67,2.12,10.66,2.73c9.56,1.08,16.7,3.45,21.41,7.12c4.71,3.67,7.07,8.7,7.07,15.1c0,4.44-1.25,8.37-3.74,11.77
				c-2.49,3.4-5.99,6.03-10.5,7.88c-4.51,1.85-9.7,2.78-15.55,2.78C725.64,895.7,720.07,894.83,714.71,893.08z"/>
		</g>
	</g>
</g>
</svg>
